<svg width="28" height="28" viewBox="0 0 28 28" fill="none" xmlns="http://www.w3.org/2000/svg">
<path d="M14.0013 15.3332C14.799 15.3331 15.5786 15.5716 16.2397 16.018C16.9009 16.4644 17.4135 17.0983 17.7116 17.8382C18.0098 18.5781 18.0799 19.3903 17.9129 20.1704C17.7459 20.9505 17.3495 21.6628 16.7746 22.2158L14.228 24.6665H18.0013V27.3332H10.0013V25.0345L14.9253 20.2945C15.0842 20.1418 15.2027 19.9521 15.2703 19.7423C15.338 19.5326 15.3525 19.3093 15.3127 19.0926C15.2729 18.8758 15.1801 18.6723 15.0424 18.5002C14.9047 18.3281 14.7265 18.1929 14.5237 18.1065C14.321 18.0202 14.1 17.9854 13.8805 18.0054C13.661 18.0254 13.4499 18.0994 13.2661 18.221C13.0822 18.3425 12.9314 18.5077 12.827 18.7018C12.7226 18.8959 12.668 19.1128 12.668 19.3332H10.0013C10.0013 18.2723 10.4227 17.2549 11.1729 16.5047C11.923 15.7546 12.9404 15.3332 14.0013 15.3332ZM22.0013 15.3332V20.6665H24.668V15.3332H27.3346V27.3332H24.668V23.3332H19.3346V15.3332H22.0013ZM3.33464 13.9998C3.33299 15.5993 3.69174 17.1786 4.38423 18.6203C5.07673 20.0621 6.08516 21.3293 7.33464 22.3278V25.5492C5.30692 24.3793 3.62315 22.6958 2.45282 20.6683C1.28249 18.6409 0.666885 16.3409 0.66797 13.9998H3.33464ZM14.0013 0.666511C20.9146 0.666511 26.6 5.92918 27.268 12.6665H24.5853C24.3142 10.5168 23.395 8.50062 21.9499 6.8862C20.5048 5.27177 18.6023 4.13565 16.4957 3.629C14.389 3.12235 12.178 3.26919 10.1569 4.04998C8.13571 4.83077 6.40022 6.20849 5.1813 7.99984H8.66797V10.6665H0.66797V2.66651H3.33464V5.99984C4.57516 4.34236 6.18531 2.99719 8.03704 2.07133C9.88878 1.14546 11.931 0.664436 14.0013 0.666511Z" fill="#1D2126"/>
</svg>
