<svg width="40" height="13" viewBox="0 0 40 13" fill="none" xmlns="http://www.w3.org/2000/svg">
<path d="M20.6873 4.12922C20.6645 5.92845 22.2908 6.93243 23.5159 7.52941C24.7745 8.14186 25.1973 8.53465 25.1923 9.08241C25.1829 9.92063 24.1883 10.2906 23.2576 10.305C21.6338 10.3301 20.6897 9.86657 19.9391 9.51597L19.3542 12.2531C20.1072 12.6001 21.5016 12.9027 22.9476 12.916C26.3419 12.916 28.5625 11.2405 28.5745 8.64276C28.5878 5.34584 24.0143 5.16335 24.0455 3.68972C24.0563 3.24288 24.4827 2.76604 25.417 2.6448C25.8794 2.58356 27.156 2.53669 28.6034 3.2032L29.1715 0.554971C28.3931 0.271556 27.3927 0.000170708 26.1472 0.000170708C22.9525 0.000170708 20.7055 1.69847 20.6873 4.12922ZM34.6301 0.228277C34.0103 0.228277 33.488 0.58981 33.2549 1.14461L28.4064 12.7215H31.7982L32.4731 10.8562H36.6178L37.0093 12.7215H39.9988L37.3901 0.228277H34.6301ZM35.1046 3.60316L36.0834 8.29451H33.4027L35.1046 3.60316ZM16.575 0.228434L13.9015 12.7213H17.1336L19.8058 0.228121H16.575M11.7937 0.228121L8.42956 8.73166L7.06873 1.50146C6.90906 0.694334 6.27848 0.228277 5.57823 0.228277H0.0789782L0.00195312 0.591061C1.13093 0.836041 2.41364 1.23117 3.19076 1.65394C3.66635 1.91221 3.80196 2.13797 3.9582 2.75167L6.53565 12.7215H9.95116L15.1876 0.228277L11.7937 0.228121Z" fill="url(#paint0_linear_820_1624)"/>
<defs>
<linearGradient id="paint0_linear_820_1624" x1="1838.82" y1="38.8252" x2="1876.2" y2="-1287.65" gradientUnits="userSpaceOnUse">
<stop stop-color="#222357"/>
<stop offset="1" stop-color="#254AA5"/>
</linearGradient>
</defs>
</svg>
